<svg xmlns="http://www.w3.org/2000/svg" xmlns:xlink="http://www.w3.org/1999/xlink" viewBox="0 0 486.913 109.332" height="413.222" width="1840.3">
  <defs>
    <linearGradient id="c">
      <stop offset="0"/>
      <stop offset="1" stop-opacity="0"/>
    </linearGradient>
    <linearGradient id="b">
      <stop offset="0" stop-color="#9ba3a8"/>
      <stop offset="1" stop-color="#9ba3a8" stop-opacity="0"/>
    </linearGradient>
    <linearGradient gradientTransform="translate(53.602 -40.33) scale(.64352)" xlink:href="#a" id="w" x1="118.271" y1="197.247" x2="132.568" y2="156.377" gradientUnits="userSpaceOnUse"/>
    <linearGradient id="a">
      <stop offset="0"/>
      <stop offset="1" stop-opacity="0"/>
    </linearGradient>
    <linearGradient xlink:href="#a" id="v" gradientUnits="userSpaceOnUse" x1="2158.063" y1="1116.481" x2="2647.713" y2="2461.407"/>
    <linearGradient xlink:href="#b" id="t" gradientUnits="userSpaceOnUse" x1="29.796" y1="77.052" x2="108.176" y2="31.302"/>
    <linearGradient xlink:href="#b" id="u" gradientUnits="userSpaceOnUse" x1="29.796" y1="77.052" x2="108.176" y2="31.302"/>
    <linearGradient xlink:href="#b" id="s" gradientUnits="userSpaceOnUse" x1="29.796" y1="77.052" x2="108.176" y2="31.302"/>
    <linearGradient xlink:href="#c" id="e" gradientUnits="userSpaceOnUse" x1="265.155" y1="53.842" x2="265.109" y2="5.471"/>
    <linearGradient xlink:href="#c" id="f" gradientUnits="userSpaceOnUse" x1="265.155" y1="53.842" x2="265.109" y2="5.471"/>
    <linearGradient xlink:href="#c" id="g" gradientUnits="userSpaceOnUse" x1="265.155" y1="53.842" x2="265.109" y2="5.471"/>
    <linearGradient xlink:href="#c" id="h" gradientUnits="userSpaceOnUse" x1="265.155" y1="53.842" x2="265.109" y2="5.471"/>
    <linearGradient xlink:href="#c" id="i" gradientUnits="userSpaceOnUse" x1="265.155" y1="53.842" x2="265.109" y2="5.471"/>
    <linearGradient xlink:href="#c" id="j" gradientUnits="userSpaceOnUse" x1="265.155" y1="53.842" x2="265.109" y2="5.471"/>
    <linearGradient xlink:href="#c" id="k" gradientUnits="userSpaceOnUse" x1="265.155" y1="53.842" x2="265.109" y2="5.471"/>
    <linearGradient xlink:href="#c" id="l" gradientUnits="userSpaceOnUse" x1="265.155" y1="53.842" x2="265.109" y2="5.471"/>
    <linearGradient xlink:href="#c" id="m" gradientUnits="userSpaceOnUse" x1="265.155" y1="53.842" x2="265.109" y2="5.471"/>
    <linearGradient xlink:href="#c" id="n" gradientUnits="userSpaceOnUse" x1="265.155" y1="53.842" x2="265.109" y2="5.471"/>
    <linearGradient xlink:href="#c" id="o" gradientUnits="userSpaceOnUse" x1="265.155" y1="53.842" x2="265.109" y2="5.471"/>
    <linearGradient xlink:href="#c" id="p" gradientUnits="userSpaceOnUse" x1="265.155" y1="53.842" x2="265.109" y2="5.471"/>
    <linearGradient xlink:href="#c" id="q" gradientUnits="userSpaceOnUse" x1="265.155" y1="53.842" x2="265.109" y2="5.471"/>
    <linearGradient xlink:href="#c" id="r" gradientUnits="userSpaceOnUse" x1="265.155" y1="53.842" x2="265.109" y2="5.471"/>
    <linearGradient xlink:href="#c" id="d" gradientUnits="userSpaceOnUse" x1="265.155" y1="53.842" x2="265.109" y2="5.471"/>
  </defs>
  <path d="M95.649 111.12h2.73l4.201 16.888 4.189-16.887h3.038l4.201 16.887 4.189-16.887h2.743l-5.018 19.979h-3.399l-4.215-17.343-4.256 17.343h-3.398zm41.069 11.87v1.205h-11.321q.16 2.542 1.525 3.88 1.379 1.325 3.827 1.325 1.419 0 2.744-.348 1.338-.348 2.65-1.044v2.329q-1.326.562-2.717.856-1.392.295-2.824.295-3.586 0-5.687-2.088-2.087-2.087-2.087-5.647 0-3.68 1.98-5.834 1.994-2.168 5.366-2.168 3.024 0 4.777 1.954 1.767 1.94 1.767 5.285zm-2.463-.722q-.026-2.021-1.137-3.225-1.097-1.205-2.917-1.205-2.06 0-3.305 1.165-1.232 1.164-1.419 3.278zm18.361 1.352q0-2.717-1.124-4.256-1.111-1.552-3.065-1.552-1.953 0-3.077 1.552-1.111 1.539-1.111 4.255 0 2.717 1.11 4.269 1.125 1.539 3.078 1.539 1.954 0 3.065-1.54 1.124-1.551 1.124-4.268zm-8.377-5.233q.776-1.338 1.954-1.98 1.19-.656 2.837-.656 2.73 0 4.429 2.168 1.713 2.167 1.713 5.7 0 3.533-1.713 5.7-1.7 2.169-4.43 2.169-1.645 0-2.836-.643-1.178-.655-1.954-1.994v2.249h-2.476v-20.822h2.476zm18.922-5.045v15.536h3.265q4.135 0 6.049-1.873 1.927-1.874 1.927-5.915 0-4.014-1.927-5.874-1.914-1.874-6.049-1.874zm-2.703-2.221h5.553q5.808 0 8.525 2.422 2.716 2.409 2.716 7.547 0 5.165-2.73 7.587-2.73 2.423-8.51 2.423h-5.554zm34.9 11.869v1.205h-11.32q.16 2.542 1.525 3.88 1.378 1.325 3.827 1.325 1.418 0 2.743-.348 1.338-.348 2.65-1.044v2.329q-1.325.562-2.717.856-1.391.295-2.823.295-3.587 0-5.687-2.088-2.088-2.087-2.088-5.647 0-3.68 1.98-5.834 1.994-2.168 5.367-2.168 3.024 0 4.777 1.954 1.766 1.94 1.766 5.285zm-2.462-.722q-.027-2.021-1.138-3.225-1.097-1.205-2.917-1.205-2.06 0-3.305 1.165-1.231 1.164-1.418 3.278zm17.156-5.714v2.328q-1.044-.535-2.168-.803-1.124-.267-2.328-.267-1.834 0-2.757.562-.91.562-.91 1.686 0 .856.656 1.351.655.482 2.636.924l.843.187q2.623.562 3.72 1.592 1.11 1.017 1.11 2.85 0 2.088-1.659 3.306-1.646 1.218-4.536 1.218-1.204 0-2.516-.241-1.298-.228-2.743-.696v-2.543q1.365.71 2.69 1.07 1.325.349 2.623.349 1.74 0 2.676-.589.937-.602.937-1.686 0-1.004-.683-1.539-.669-.535-2.957-1.03l-.857-.201q-2.288-.482-3.305-1.472-1.017-1.004-1.017-2.743 0-2.115 1.499-3.265 1.499-1.151 4.255-1.151 1.365 0 2.57.2 1.204.201 2.22.603zm5.835-.442h2.462V131.1h-2.462zm0-5.834h2.462v3.118h-2.462zm18.561 13.154q0-2.676-1.11-4.148-1.098-1.472-3.092-1.472-1.98 0-3.091 1.472-1.097 1.472-1.097 4.148 0 2.663 1.097 4.135 1.11 1.472 3.091 1.472 1.994 0 3.091-1.472 1.111-1.472 1.111-4.135zm2.462 5.807q0 3.828-1.7 5.688-1.699 1.873-5.205 1.873-1.298 0-2.449-.2-1.15-.188-2.234-.59v-2.395q1.084.589 2.14.87 1.058.281 2.155.281 2.422 0 3.627-1.271 1.204-1.258 1.204-3.814v-1.218q-.763 1.325-1.954 1.98-1.19.657-2.85.657-2.757 0-4.443-2.101-1.686-2.101-1.686-5.567 0-3.48 1.686-5.58 1.686-2.101 4.443-2.101 1.66 0 2.85.656 1.191.655 1.954 1.98v-2.275h2.462zm18.628-7.185v9.046h-2.462v-8.966q0-2.128-.83-3.185t-2.489-1.057q-1.994 0-3.144 1.271-1.151 1.271-1.151 3.466v8.47h-2.476v-14.987h2.476v2.329q.883-1.352 2.074-2.021 1.204-.67 2.77-.67 2.583 0 3.907 1.607 1.325 1.592 1.325 4.697z" transform="matrix(1.24846 0 0 .80099 -17.243 -7.243)" aria-label="WebDesign" font-weight="400" font-size="27.406" font-family="Arial Hebrew" letter-spacing="1.098" word-spacing="0" stroke="#000" stroke-width=".33"/>
  <g style="line-height:1.25" transform="matrix(.88416 0 0 1.19395 -10.004 -1.62)" aria-label="TheTinFoilHat.co" font-weight="400" font-size="35.972" font-family="sans-serif" letter-spacing="-2.698" word-spacing="0" fill="url(#d)" stroke="#000" stroke-width="1.03">
    <path style="-inkscape-font-specification:QumpellkaNo12" d="M122.748 55.987l-.539.117c.422 3.372 2.436 4.73 5.574 4.73h.492c5.456-.233 6.979-7.61 7.869-11.522l3.536-15.41c.445-1.967 2.389-9.156 2.693-11.85.843.024 1.71.024 2.576.024 6.206 0 12.694-.539 15.972-3.7.82-.89 1.148-1.687 1.148-2.39 0-1.92-1.64-3.184-4.075-3.184-3.255 6.745-8.83 7.962-21.733 7.962-8.595 0-17.776-.28-18.83-.328l-.21 1.687c1.264-.094 7.54-.14 12.53-.164v.023c.163-.023.327-.023.49-.023.422-.024.844-.024 1.266-.024 1.639.094 2.178.562 2.178 1.92 0 .68-.14 1.57-.328 2.717l-4.614 28.033c-.421 2.483-2.037 3.56-3.49 3.56-1.217 0-2.341-.773-2.505-2.178zm27.752 4.122l3.231-13.7 5.996-4.942c1.054-.843 2.365-1.663 3.349-1.663.82 0 1.405.562 1.405 2.155 0 1.054-.258 2.6-.913 4.73l-.773 2.506c-.469 1.616-.703 3.115-.703 4.497 0 4.309 2.202 7.26 5.48 7.26 1.897 0 4.38-1.054 5.925-4.052l2.178-4.285-.398-.235-1.733 3.373c-.983 1.92-2.67 2.95-3.981 2.95-1.03 0-1.803-.655-1.803-1.99 0-.632.164-1.405.562-2.342l1.733-4.122c1.007-2.435 1.452-4.567 1.452-6.346 0-4.029-2.272-6.347-5.48-6.347-2.061 0-4.544.96-7.05 3.021l-4.8 3.958 2.552-10.68c.305-1.685.796-3.325.796-4.683 0-1.92-.936-3.232-4.613-3.232h-3.654l-.07.468c.492 0 .796 0 .796 1.007 0 .656-.14 1.757-.445 3.584l-4.894 28.337c0 .023-.047.304-.047.328 0 .468 1.616.702 3.185.702h2.248c.14 0 .445-.093.469-.257z" font-size="47.963" font-family="QumpellkaNo12" letter-spacing="0" fill="url(#e)"/>
    <path d="M185.933 52.778c10.023-.07 18.782-3.278 18.782-9.578 0-3.794-3.513-5.808-10.164-5.808-9.04 0-15.878 4.871-15.878 14.145 0 5.668 4.286 9.298 11.312 9.298 5.082 0 9.46-1.874 12.318-5.059l-.866-.773c-1.874 2.272-5.879 4.24-9.321 4.24-4.31 0-6.206-1.617-6.206-5.715 0-.258 0-.492.023-.75zm.07-1.17c.586-6.769 4.192-13.045 8.314-13.045 2.576 0 3.911 1.382 3.911 4.005 0 6.417-4.707 9.04-12.225 9.04z" letter-spacing="-7.656" fill="url(#f)"/>
    <path style="-inkscape-font-specification:QumpellkaNo12" d="M208.277 55.987l-.538.117c.421 3.372 2.435 4.73 5.573 4.73h.492c5.457-.233 6.956-7.61 7.869-11.522l3.162-13.536c.445-1.967 2.388-9.157 2.693-11.85.843.023 1.71.023 2.576.023 6.206 0 12.693-.538 15.972-3.7.866-.96 1.218-1.873 1.218-2.693 0-2.295-1.663-3.817-4.146-3.817a3.618 3.618 0 0 0-3.63 3.63c0 .983.399 1.92 1.078 2.576-3.232 2.6-9.345 2.693-17.167 2.693h-2.014c-8.595 0-17.775-.281-18.829-.328l-.21 1.686c1.264-.094 7.54-.164 12.529-.187v.047c.234-.024.468-.024.702-.047h.89c1.78.047 2.342.515 2.342 1.92 0 .68-.14 1.57-.328 2.717l-4.239 26.16c-.421 2.482-2.014 3.559-3.466 3.559-1.24 0-2.365-.773-2.529-2.178zm38.455-3.138l-.399-.234-1.615 3.138c-.726 1.405-2.108 2.178-3.28 2.178-1.1 0-2.037-.703-2.037-2.202 0-.398.07-.843.211-1.358l1.148-4.122c.538-2.014 2.552-9.812 2.787-12.365h-5.574c-2.576 0-4.895.538-6.44 3.56l-1.359 2.646.422.21 1.358-2.646c.726-1.405 1.57-2.271 2.131-2.271.422 0 .703.445.703 1.498 0 .492-.047 1.101-.188 1.827l-1.124 6.37c-.304 1.64-.796 3.911-.796 5.996 0 3.7 2.764 5.573 5.738 5.573 2.435 0 4.965-1.24 6.253-3.747z" font-size="47.963" font-family="QumpellkaNo12" letter-spacing="0" fill="url(#g)"/>
    <path style="-inkscape-font-specification:QumpellkaNo12" d="M257.481 37.65c-2.576 0-4.895.679-6.44 3.7l-1.359 2.646.422.211 1.358-2.646c.703-1.382 1.523-2.225 2.108-2.225.422 0 .726.468.726 1.592 0 .469-.07 1.054-.187 1.78l-2.787 16.628c0 .023-.047.304-.047.328 0 .468 1.616.702 3.185.702h2.834c.14 0 .445-.093.468-.257l2.506-9.86c.258-1.077.68-2.482 1.007-3.958l5.831-4.824c1.054-.843 2.342-1.733 3.303-1.733 1.03 0 1.334.913 1.334 2.108 0 1.522-.515 3.536-.796 4.847l-.562 2.506c-.375 1.71-.609 3.42-.609 5.012 0 3.747 1.382 6.721 5.832 6.721 1.873 0 3.84-1.217 5.269-4.028l2.178-4.285-.398-.235-1.733 3.373c-.726 1.405-1.944 2.154-2.951 2.154-.89 0-1.616-.609-1.616-1.92 0-.445.094-.984.281-1.616l1.265-4.122c.702-2.342 1.381-4.988 1.381-7.26 0-3.138-1.288-5.574-5.62-5.574-2.038 0-4.73 1.054-7.307 3.162l-4.754 3.911c.094-.726.164-1.429.164-2.108 0-2.623-.96-4.73-4.286-4.73z" font-size="47.963" font-family="QumpellkaNo12" letter-spacing="0" fill="url(#h)"/>
    <path style="-inkscape-font-specification:QumpellkaNo12" d="M286.99 55.987l-.54.117c.422 3.372 2.436 4.73 5.575 4.73 5.948 0 7.47-7.4 8.36-11.522l2.342-10.21h12.553l.117-1.687-12.389.469.82-3.513c.445-2.014 1.78-9.415 1.99-11.99 7.471-.141 14.029-.493 19.368-.493 8.267 0 13.583.844 14.66 4.544 2.67 0 4.45-1.64 4.45-4.099 0-3.02-3.278-4.637-9.344-4.637-9.133 0-23.653 3.584-35.386 3.584-1.78 0-5.762-.024-7.8-.188l.118 1.452c.562-.023 2.365-.047 4.098-.07 1.382.117 1.85.609 1.85 1.873 0 .68-.14 1.546-.327 2.694l-4.52 27.564c-.422 2.46-2.038 3.56-3.49 3.56-1.218 0-2.342-.773-2.506-2.178z" font-size="47.963" font-family="QumpellkaNo12" letter-spacing="0" fill="url(#i)"/>
    <path style="-inkscape-font-specification:QumpellkaNo12" d="M327.107 59.664c-3.092 0-4.544-1.5-4.544-5.246 0-7.916 3.724-15.855 8.642-15.855 2.88 0 4.403 2.108 4.403 6.089 0 8.595-3.607 15.012-8.501 15.012zm4.332-22.272c-9.04 0-15.878 4.871-15.878 14.145 0 5.668 4.262 9.298 11.311 9.298 8.806 0 15.949-5.62 15.949-14.708 0-5.69-3.911-8.735-11.382-8.735z" font-size="47.963" font-family="QumpellkaNo12" letter-spacing="0" fill="url(#j)"/>
    <path style="-inkscape-font-specification:QumpellkaNo12" d="M352.165 25.589c0 1.967 1.57 3.63 3.63 3.63 1.944 0 3.63-1.57 3.63-3.63a3.633 3.633 0 0 0-3.63-3.63 3.618 3.618 0 0 0-3.63 3.63zm9.813 27.26l-.398-.234-1.616 3.138c-.726 1.405-2.108 2.178-3.279 2.178-1.1 0-2.037-.703-2.037-2.202 0-.398.07-.843.21-1.358l1.148-4.122c.539-2.014 2.553-9.812 2.787-12.365h-5.574c-2.576 0-4.895.538-6.44 3.56l-1.359 2.646.422.21 1.358-2.646c.726-1.405 1.57-2.271 2.131-2.271.422 0 .703.445.703 1.498 0 .492-.07 1.101-.187 1.827l-1.124 6.37c-.305 1.64-.797 3.911-.797 5.996 0 3.7 2.764 5.573 5.738 5.573 2.436 0 4.965-1.24 6.253-3.747z" font-size="47.963" font-family="QumpellkaNo12" letter-spacing="0" fill="url(#k)"/>
    <path style="-inkscape-font-specification:QumpellkaNo12" d="M372.938 24.769s-2.225-.023-3.653-.047l-.047.469c.468 0 .773 0 .773 1.03 0 .68-.14 1.78-.445 3.607l-3.255 19.25c-.282 1.57-.633 3.7-.633 5.715 0 3.957 2.6 5.925 5.41 5.925 2.272 0 4.684-1.288 5.972-3.818l2.06-4.051-.397-.234-1.616 3.138c-.61 1.194-2.248 2.178-3.607 2.178-1.1 0-1.99-.656-1.99-2.366 0-.35.046-.749.14-1.194l4.075-17.213c.468-2.014 2.553-9.883 2.764-12.436z" font-size="47.963" font-family="QumpellkaNo12" letter-spacing="0" fill="url(#l)"/>
    <path style="-inkscape-font-specification:QumpellkaNo12" d="M411.182 21.959l-5.574.047s-4.215-.047-6.909-.07l-.07.468c3.068 0 3.958.234 3.958 1.897 0 .655-.14 1.545-.351 2.74l-2.366 13.794c-.702-.024-1.381-.07-1.99-.07-9.509 0-15.855 6.159-15.855 15.433 0 4.403 2.482 7.353 6.182 7.353 11.476 0 15.223-6.908 18.29-20.679 4.24.586 9.884 1.241 14.123 1.335l-2.272 13.185a8.246 8.246 0 0 0-.14 1.546c0 7.822 5.363 13.02 13.395 13.02 5.598 0 9.298-1.943 9.298-4.894 0-2.014-3.021-2.623-4.239-2.623 0 3.466-3.068 5.808-6.393 5.808-4.942 0-7.097-1.405-7.097-5.831 0-1.1.258-2.46.516-3.607l3.91-17.213c2.577-.656 4.52-1.873 5.41-3.981l-1.381-.796c-.469 1.334-1.733 2.201-3.56 2.74l1.616-7.19c.468-2.014 2.576-9.86 2.81-12.412l-5.573.047s-1.663-.047-2.694-.07l-.07.468c-.187 1.943-.304 2.927-.609 4.637l-2.6 15.27c-4.098 0-9.765-.47-14.145-.89l1.57-7.05c.468-2.014 2.576-9.86 2.81-12.412zm-11.522 20.07c-1.5 8.642-2.085 19.415-11.054 19.415-2.928 0-4.872-2.342-4.872-5.879 0-8.173 5.574-13.63 13.911-13.63.61 0 1.289.047 2.015.094z" font-size="47.963" font-family="QumpellkaNo12" letter-spacing="0" fill="url(#m)"/>
    <path style="-inkscape-font-specification:QumpellkaNo12" d="M459.543 37.884c-.539 0-2.342.28-3.42 2.74-1.17-2.108-3.512-3.232-7.213-3.232-8.97 0-14.965 5.738-14.965 14.31 0 5.48 4.169 9.133 10.399 9.133 5.971 0 8.735-3.537 10.445-7.12 0 4.567 2.646 7.12 5.48 7.12 1.99 0 4.098-1.265 5.456-3.935l2.061-4.051-.398-.234-1.616 3.138c-.726 1.405-2.108 2.201-3.302 2.201-1.17 0-2.155-.773-2.155-2.482 0-.328.047-.703.118-1.101l1.077-4.122c.562-1.99 2.435-9.812 2.67-12.365zm-4.146 3.466c.094.14.118.375.118.632 0 .351-.047.726-.07.96l-.422 6.136c-.024.305-.14 1.5-.352 1.99-1.381 3.584-3.864 8.174-8.267 8.174-3.419 0-5.245-1.873-5.245-5.363 0-9.133 3.864-15.222 9.648-15.222 1.616 0 3.607.772 4.59 2.693z" font-size="47.963" font-family="QumpellkaNo12" letter-spacing="0" fill="url(#n)"/>
    <path style="-inkscape-font-specification:QumpellkaNo12" d="M474.437 39.102l-1.545 9.976c-.235 1.593-.656 3.794-.656 5.832 0 3.864 2.904 5.808 5.995 5.808 2.46 0 5.059-1.265 6.37-3.818l2.061-4.051-.398-.234-1.616 3.138c-.632 1.24-2.482 2.201-4.051 2.201-1.335 0-2.483-.726-2.483-2.576 0-.304.047-.632.117-1.007l3.373-15.27h7.166v-1.217h-6.885l1.967-8.923c0-.023.023-.117.023-.14 0-.07-.234-.118-.515-.118h-2.717c-2.154 0-4.941 2.296-5.41 5.2l-.608 3.98h-4.754v1.219z" font-size="47.963" font-family="QumpellkaNo12" letter-spacing="0" fill="url(#o)"/>
    <path d="M490.152 57.93a3.617 3.617 0 0 0 3.63 3.63 3.617 3.617 0 0 0 3.63-3.63c0-2.177-1.452-3.63-3.63-3.63s-3.63 1.453-3.63 3.63z" letter-spacing="-3.887" fill="url(#p)"/>
    <path style="-inkscape-font-specification:QumpellkaNo12" d="M517.858 38.586c3.817 0 5.737 1.148 5.737 5.2 0 1.007-.14 2.2-.374 3.63.187.046.421.07.702.07 1.733 0 4.848-.984 4.848-3.56 0-4.239-5.176-6.51-10.703-6.51-9.016 0-15.855 4.847-15.855 14.121 0 5.668 4.286 9.298 11.312 9.298 5.082 0 9.461-1.874 12.319-5.059l-.867-.773c-1.874 2.272-5.878 4.24-9.32 4.24-4.31 0-6.207-1.617-6.207-5.715 0-7.47 3.981-14.918 8.408-14.942z" font-size="47.963" font-family="QumpellkaNo12" letter-spacing="0" fill="url(#q)"/>
    <path style="-inkscape-font-specification:QumpellkaNo12" d="M542.8 59.664c-3.092 0-4.544-1.5-4.544-5.246 0-7.916 3.723-15.855 8.641-15.855 2.881 0 4.403 2.108 4.403 6.089 0 8.595-3.606 15.012-8.5 15.012zm4.332-22.272c-9.04 0-15.879 4.871-15.879 14.145 0 5.668 4.263 9.298 11.312 9.298 8.806 0 15.948-5.62 15.948-14.708 0-5.69-3.91-8.735-11.381-8.735z" font-size="47.963" font-family="QumpellkaNo12" letter-spacing="0" fill="url(#r)"/>
  </g>
  <g transform="matrix(.559 0 0 .559 .375 .364)" fill="url(#s)" stroke="#000" stroke-width="2.014">
    <path transform="translate(-2.268 -101.732)" d="M132.107 169.472V137.93c-.286-16.329-7.562-21.218-15.636-24.802-20.938-6.701-40.122-8.798-63.893-2.696-8.113 4.04-17.468 6.828-19.41 26.15v32.35c-.613.14-.333.445-1.126 1.035-.062.836.14 1.568.587 2.201-.054 1.98-.467 2.16-.81 2.696 39.396 5.412 72.88 5.817 103.254.809-.773 2.177-2.864-5.719-2.966-6.2z" fill="url(#t)"/>
    <path transform="translate(-2.268 -101.732)" d="M31.82 175.133c-9.16-4.275-19.826-11.776-24.263-5.93-2.215 14.245 12.542 14.7 23.724 18.062 35.126 8.468 68.251 7.96 101.905 1.078 13.81-2.425 24.357-6.25 23.184-15.097-5.047-6.373-13.53-.72-21.297 2.427-33.885 5.15-67.961 8.384-103.253-.54z" fill="url(#u)"/>
  </g>
  <path d="M17.2 37.534c13.917 4.229 30.992 4.778 55.755.697l1.658 3.466c-18.49 3.595-37.366 3.831-57.262-.848z" stroke="#000" stroke-width="1.126"/>
  <path d="M2690 1480c-121-19-230-80-324-181l-55-60-54 54c-71 73-165 133-252 160-99 31-251 31-355-2-100-30-230-100-314-167-227-182-448-281-602-271-43 3-87 13-111 26-46 23-109 83-118 112-10 32 3 84 26 105 28 25 101 23 164-5 58-26 77-26 98-3 30 33 21 62-36 118-153 147-340 114-491-87-45-60-46-62-46-139 0-94 26-185 72-255 118-178 357-310 637-352 161-24 528-24 658 0 196 37 362 99 488 182 60 40 177 154 203 197 9 15 22 28 29 28 6 0 32-27 57-59 195-253 578-385 1061-368 398 15 625 91 813 271 106 102 162 224 162 357 0 55-5 72-29 110-40 63-142 156-198 182-104 47-226 20-322-71-34-32-41-46-41-76 0-56 31-66 110-36 75 28 143 32 165 9 25-24 34-81 20-115-20-48-88-101-152-120-100-29-236-3-389 74-66 33-237 147-319 213-64 51-233 134-310 153-82 19-179 26-245 16z" fill="url(#v)" transform="matrix(.01849 0 0 -.01849 2.31 81.825)" stroke-width="75.596" stroke="#000004"/>
  <path d="M100.06 81.23c13.66 2.32 21.022-2.675 26.452-7.176 7.052 4.888 11.42 8.622 26.209 7.054-11.542 7.802-21.366 18.736-26.12 34.297-4.93-15.227-13.691-26.364-26.54-34.175z" fill="url(#w)" stroke="#000" stroke-width="1.609" transform="translate(-65.016 3.884) scale(.86865)"/>
  <path d="M57.641 78.173c-5.93 4.592-11.258 9.858-12.75 16.016-2.076-6.346-7.488-11.905-12.692-15.905M14.27 56.966c-4.662-1.234-6.629 3.069-5.64 5.334 3.909 8.966 25.322 8.009 31.487.56m36.103-6.09c4.344-.837 5.978 3.825 4.271 6.216-6.6 9.243-24.148 7.225-30.313-.224" fill="none" stroke="#9ba3a8" stroke-width=".919" stroke-linecap="round"/>
</svg>