<svg xmlns="http://www.w3.org/2000/svg" xmlns:xlink="http://www.w3.org/1999/xlink" viewBox="0 0 487.204 108.602" height="410.463" width="1841.401">
  <defs>
    <linearGradient id="c">
      <stop offset="0"/>
      <stop offset="1" stop-opacity="0"/>
    </linearGradient>
    <linearGradient id="b">
      <stop offset="0" stop-color="#9ba3a8"/>
      <stop offset="1" stop-color="#9ba3a8" stop-opacity="0"/>
    </linearGradient>
    <linearGradient gradientTransform="translate(53.602 -40.33) scale(.64352)" xlink:href="#a" id="w" x1="118.271" y1="197.247" x2="132.568" y2="156.377" gradientUnits="userSpaceOnUse"/>
    <linearGradient id="a">
      <stop offset="0"/>
      <stop offset="1" stop-opacity="0"/>
    </linearGradient>
    <linearGradient xlink:href="#a" id="v" gradientUnits="userSpaceOnUse" x1="2158.063" y1="1116.481" x2="2647.713" y2="2461.407"/>
    <linearGradient xlink:href="#b" id="t" gradientUnits="userSpaceOnUse" x1="29.796" y1="77.052" x2="108.176" y2="31.302"/>
    <linearGradient xlink:href="#b" id="u" gradientUnits="userSpaceOnUse" x1="29.796" y1="77.052" x2="108.176" y2="31.302"/>
    <linearGradient xlink:href="#b" id="s" gradientUnits="userSpaceOnUse" x1="29.796" y1="77.052" x2="108.176" y2="31.302"/>
    <linearGradient xlink:href="#c" id="e" gradientUnits="userSpaceOnUse" x1="265.155" y1="53.842" x2="265.109" y2="5.471"/>
    <linearGradient xlink:href="#c" id="f" gradientUnits="userSpaceOnUse" x1="265.155" y1="53.842" x2="265.109" y2="5.471"/>
    <linearGradient xlink:href="#c" id="g" gradientUnits="userSpaceOnUse" x1="265.155" y1="53.842" x2="265.109" y2="5.471"/>
    <linearGradient xlink:href="#c" id="h" gradientUnits="userSpaceOnUse" x1="265.155" y1="53.842" x2="265.109" y2="5.471"/>
    <linearGradient xlink:href="#c" id="i" gradientUnits="userSpaceOnUse" x1="265.155" y1="53.842" x2="265.109" y2="5.471"/>
    <linearGradient xlink:href="#c" id="j" gradientUnits="userSpaceOnUse" x1="265.155" y1="53.842" x2="265.109" y2="5.471"/>
    <linearGradient xlink:href="#c" id="k" gradientUnits="userSpaceOnUse" x1="265.155" y1="53.842" x2="265.109" y2="5.471"/>
    <linearGradient xlink:href="#c" id="l" gradientUnits="userSpaceOnUse" x1="265.155" y1="53.842" x2="265.109" y2="5.471"/>
    <linearGradient xlink:href="#c" id="m" gradientUnits="userSpaceOnUse" x1="265.155" y1="53.842" x2="265.109" y2="5.471"/>
    <linearGradient xlink:href="#c" id="n" gradientUnits="userSpaceOnUse" x1="265.155" y1="53.842" x2="265.109" y2="5.471"/>
    <linearGradient xlink:href="#c" id="o" gradientUnits="userSpaceOnUse" x1="265.155" y1="53.842" x2="265.109" y2="5.471"/>
    <linearGradient xlink:href="#c" id="p" gradientUnits="userSpaceOnUse" x1="265.155" y1="53.842" x2="265.109" y2="5.471"/>
    <linearGradient xlink:href="#c" id="q" gradientUnits="userSpaceOnUse" x1="265.155" y1="53.842" x2="265.109" y2="5.471"/>
    <linearGradient xlink:href="#c" id="r" gradientUnits="userSpaceOnUse" x1="265.155" y1="53.842" x2="265.109" y2="5.471"/>
    <linearGradient xlink:href="#c" id="d" gradientUnits="userSpaceOnUse" x1="265.155" y1="53.842" x2="265.109" y2="5.471"/>
  </defs>
  <g style="line-height:1.25">
    <path d="M106.911 116.228c-1.3 2.888-3.164 5.303-4.608 5.303-1.819 0-2.337-1.654-2.337-3.815 0-3.23 1.146-7.75 1.146-10.484 0-1.676-.98-2.999-3.175-2.999-1.08 0-1.785.96-2.491 2.36l.21.077c.374-.728.694-1.014.948-1.014.584 0 .87.76.87 2.667 0 .342-.11 1.345-.209 2.657a51.74 51.74 0 0 0-.132 3.396c0 3.87.65 8.411 4.046 8.411 2.27 0 4.321-2.403 5.82-5.468.353 3.032 1.378 5.468 3.881 5.468 2.05 0 4.035-1.576 5.567-4.068 1.775-2.877 2.944-6.978 2.944-11.255 0-1.048-.265-2.018-1.059-2.999-.297-.375-.628-.53-.948-.53-.948 0-1.874 1.269-2.017 1.842 2.072.76 2.767 2.447 2.767 4.343 0 3.043-.87 6.075-2.15 8.258-1.113 1.907-2.546 3.153-3.98 3.153-1.796 0-2.337-1.599-2.337-3.815 0-3.23 1.147-7.75 1.147-10.484 0-1.422-.684-2.712-2.723-2.712h-2.293l.01.254c1.18.01 1.434 1.356 1.434 2.634 0 .54-.055 1.08-.088 1.489-.144 1.576-.298 3.527-.298 5.468 0 .628.011 1.257.055 1.863zm40.99 2.778c4.719-.033 8.842-1.543 8.842-4.509 0-1.786-1.654-2.734-4.785-2.734-4.255 0-7.474 2.293-7.474 6.659 0 2.668 2.017 4.376 5.325 4.376 2.392 0 4.453-.882 5.798-2.38l-.408-.365c-.881 1.07-2.767 1.996-4.387 1.996-2.029 0-2.922-.761-2.922-2.69 0-.122 0-.232.011-.353zm.033-.551c.276-3.186 1.974-6.14 3.914-6.14 1.213 0 1.841.65 1.841 1.884 0 3.021-2.216 4.256-5.755 4.256zm37.286 4.002l1.059-1.808c.408 1.41 1.62 2.16 3.693 2.16 4.233 0 7.089-2.712 7.089-6.747 0-2.623-1.864-4.299-4.917-4.299-2.172 0-3.44.992-4.278 2.227l1.059-4.443c.143-.794.374-1.565.374-2.205 0-.904-.452-1.521-2.171-1.521h-1.72l-.033.22c.231 0 .375 0 .375.474 0 .31-.067.827-.21 1.687l-2.436 14.023v.022c0 .22.76.33 1.499.33H185c.066 0 .176-.043.22-.12zm2.106-6.163c.662-1.665 1.841-3.781 3.848-3.781 1.488 0 2.469 1.014 2.469 2.524 0 4.652-1.61 7.177-4.564 7.177-1.058 0-2.525-.694-2.525-2.624zm48.784-11.774c-.496 0-9.216-.154-9.723-.176l-.066.672a43.6 43.6 0 0 1 1.576-.022c.937 0 1.257.22 1.257.904 0 .309-.066.717-.154 1.246l-2.536 14.838-2.712-.044-.187.65c3.076.078 8.014.21 9.25.21 6.129 0 11.21-4.619 11.21-11.663 0-4.322-2.711-6.615-7.915-6.615zm-6.824 17.529l2.613-11.488c.199-.87 1.07-4.09 1.279-5.523 1.4.011 2.535.033 2.833.033 2.944.022 4.465 1.841 4.465 5.314 0 7.1-3.065 11.774-7.519 11.774-1.223 0-2.447-.066-3.67-.11zm44.121-3.043c4.719-.033 8.842-1.543 8.842-4.509 0-1.786-1.654-2.734-4.785-2.734-4.255 0-7.474 2.293-7.474 6.659 0 2.668 2.017 4.376 5.325 4.376 2.392 0 4.453-.882 5.798-2.38l-.408-.365c-.881 1.07-2.767 1.996-4.387 1.996-2.029 0-2.922-.761-2.922-2.69 0-.122 0-.232.011-.353zm.033-.551c.276-3.186 1.974-6.14 3.914-6.14 1.213 0 1.841.65 1.841 1.884 0 3.021-2.216 4.256-5.755 4.256zm39.734 4.355c3.307 0 6.25-1.257 6.25-3.473 0-1.665-1.83-2.426-3.593-3.286-1.456-.716-3.032-1.003-3.032-1.995 0-1.279 1.19-1.742 2.425-1.753 1.742 0 2.525.717 2.712 2.723.937 0 1.555-.507 1.555-1.268a.904.904 0 0 0-.188-.562c-.904-1.268-2.38-1.422-3.968-1.422-3.308 0-5.711 1.08-5.711 3.418 0 1.488 1.565 2.414 3.263 2.954 1.808.562 3.748 1.036 3.748 2.073 0 1.278-1.61 2.04-3.351 2.04-2.04 0-3.296-.971-3.473-2.933l-.01-.078c-1.081 0-1.665.452-1.665 1.312a.95.95 0 0 0 .198.574c.97 1.378 2.999 1.675 4.84 1.675zm36.006-16.603a1.71 1.71 0 0 0 3.418 0 1.71 1.71 0 0 0-1.708-1.709c-.926 0-1.71.739-1.71 1.709zm4.62 12.832l-.187-.11-.761 1.477c-.342.662-.992 1.025-1.543 1.025-.519 0-.96-.33-.96-1.036 0-.187.034-.397.1-.64l.54-1.94c.253-.948 1.202-4.619 1.312-5.82h-2.624c-1.213 0-2.304.253-3.032 1.675l-.64 1.246.2.1.639-1.247c.342-.661.738-1.069 1.003-1.069.198 0 .33.21.33.706 0 .231-.032.518-.088.86l-.529 2.998c-.143.772-.374 1.841-.374 2.822 0 1.742 1.3 2.624 2.7 2.624 1.147 0 2.338-.584 2.944-1.764zm31.333-.54c-1.29 0-1.863-.496-1.863-1.742 0-2.503 1.224-4.443 3.065-4.443 1.212 0 1.83.695 1.83 2.007 0 2.656-1.169 4.178-3.032 4.178zm-.573 8.048c-2.348 0-3.914-.662-3.914-1.643 0-.232.055-.474.165-.739a1.03 1.03 0 0 0-.43-.077c-.496 0-1.18.232-1.18 1.07v.022c0 1.157 2.106 1.918 5.26 1.918 3.759 0 6.592-1.136 6.592-4.3 0-2.083-1.455-2.7-2.855-2.7-1.841 0-4.245 1.036-5.7 1.036-.727 0-1.19-.254-1.19-1.037 0-.297.308-.848 1.047-1.201l.408-.188c.628.22 1.4.342 2.27.342 3.242 0 5.855-1.61 5.855-4.432 0-.97-.42-1.708-1.224-2.182.309-.122.606-.177.87-.177.839 0 1.302.54 1.379 1.367.309-.01 1.224-.43 1.224-1.091 0-.585-.408-.96-1.257-.96-.739 0-1.665.298-2.525.695-.716-.33-1.698-.507-2.91-.507-3.374 0-5.843 1.4-5.843 4.277 0 1.037.551 1.875 1.532 2.393l-.386.176c-1.356.64-1.929 2.029-1.929 2.888 0 1.621 1.422 2.14 3.241 2.14 1.71 0 3.727-.354 5.094-.354.937 0 1.554.166 1.554.739 0 1.543-2.525 2.525-5.148 2.525zm37.572-14.663c-1.212 0-2.304.32-3.031 1.742l-.64 1.246.199.1.639-1.247c.33-.65.717-1.047.992-1.047.199 0 .342.22.342.75 0 .22-.033.496-.088.838l-1.312 7.827c0 .01-.022.143-.022.154 0 .22.76.33 1.5.33h1.333c.066 0 .21-.043.22-.12l1.18-4.642c.121-.507.32-1.168.474-1.863l2.745-2.27c.496-.398 1.103-.817 1.555-.817.485 0 .628.43.628.993 0 .716-.242 1.664-.375 2.282l-.264 1.18c-.177.804-.287 1.609-.287 2.358 0 1.764.65 3.164 2.745 3.164.882 0 1.808-.573 2.48-1.896l1.026-2.017-.188-.11-.815 1.587c-.342.662-.915 1.014-1.39 1.014-.418 0-.76-.286-.76-.904 0-.21.044-.463.132-.76l.596-1.94c.33-1.103.65-2.349.65-3.418 0-1.477-.606-2.624-2.646-2.624-.959 0-2.227.496-3.44 1.488l-2.237 1.841c.044-.341.077-.672.077-.992 0-1.235-.452-2.227-2.018-2.227z" style="-inkscape-font-specification:QumpellkaNo12" transform="matrix(1.1563 0 0 .86482 -17.652 -7.243)" aria-label="WebDesign" font-weight="400" font-size="22.578" font-family="QumpellkaNo12" letter-spacing="24.961" word-spacing="0" stroke="#000" stroke-width=".229"/>
  </g>
  <g style="line-height:1.25" transform="matrix(.88416 0 0 1.19395 -10.413 -1.62)" aria-label="TheTinFoilHat.co" font-weight="400" font-size="35.972" font-family="sans-serif" letter-spacing="-2.698" word-spacing="0" fill="url(#d)" stroke="#000" stroke-width="1.03">
    <path style="-inkscape-font-specification:QumpellkaNo12" d="M122.748 55.987l-.539.117c.422 3.372 2.436 4.73 5.574 4.73h.492c5.456-.233 6.979-7.61 7.869-11.522l3.536-15.41c.445-1.967 2.389-9.156 2.693-11.85.843.024 1.71.024 2.576.024 6.206 0 12.694-.539 15.972-3.7.82-.89 1.148-1.687 1.148-2.39 0-1.92-1.64-3.184-4.075-3.184-3.255 6.745-8.83 7.962-21.733 7.962-8.595 0-17.776-.28-18.83-.328l-.21 1.687c1.264-.094 7.54-.14 12.53-.164v.023c.163-.023.327-.023.49-.023.422-.024.844-.024 1.266-.024 1.639.094 2.178.562 2.178 1.92 0 .68-.14 1.57-.328 2.717l-4.614 28.033c-.421 2.483-2.037 3.56-3.49 3.56-1.217 0-2.341-.773-2.505-2.178zm27.752 4.122l3.231-13.7 5.996-4.942c1.054-.843 2.365-1.663 3.349-1.663.82 0 1.405.562 1.405 2.155 0 1.054-.258 2.6-.913 4.73l-.773 2.506c-.469 1.616-.703 3.115-.703 4.497 0 4.309 2.202 7.26 5.48 7.26 1.897 0 4.38-1.054 5.925-4.052l2.178-4.285-.398-.235-1.733 3.373c-.983 1.92-2.67 2.95-3.981 2.95-1.03 0-1.803-.655-1.803-1.99 0-.632.164-1.405.562-2.342l1.733-4.122c1.007-2.435 1.452-4.567 1.452-6.346 0-4.029-2.272-6.347-5.48-6.347-2.061 0-4.544.96-7.05 3.021l-4.8 3.958 2.552-10.68c.305-1.685.796-3.325.796-4.683 0-1.92-.936-3.232-4.613-3.232h-3.654l-.07.468c.492 0 .796 0 .796 1.007 0 .656-.14 1.757-.445 3.584l-4.894 28.337c0 .023-.047.304-.047.328 0 .468 1.616.702 3.185.702h2.248c.14 0 .445-.093.469-.257z" font-size="47.963" font-family="QumpellkaNo12" letter-spacing="0" fill="url(#e)"/>
    <path d="M185.933 52.778c10.023-.07 18.782-3.278 18.782-9.578 0-3.794-3.513-5.808-10.164-5.808-9.04 0-15.878 4.871-15.878 14.145 0 5.668 4.286 9.298 11.312 9.298 5.082 0 9.46-1.874 12.318-5.059l-.866-.773c-1.874 2.272-5.879 4.24-9.321 4.24-4.31 0-6.206-1.617-6.206-5.715 0-.258 0-.492.023-.75zm.07-1.17c.586-6.769 4.192-13.045 8.314-13.045 2.576 0 3.911 1.382 3.911 4.005 0 6.417-4.707 9.04-12.225 9.04z" letter-spacing="-7.656" fill="url(#f)"/>
    <path style="-inkscape-font-specification:QumpellkaNo12" d="M208.277 55.987l-.538.117c.421 3.372 2.435 4.73 5.573 4.73h.492c5.457-.233 6.956-7.61 7.869-11.522l3.162-13.536c.445-1.967 2.388-9.157 2.693-11.85.843.023 1.71.023 2.576.023 6.206 0 12.693-.538 15.972-3.7.866-.96 1.218-1.873 1.218-2.693 0-2.295-1.663-3.817-4.146-3.817a3.618 3.618 0 0 0-3.63 3.63c0 .983.399 1.92 1.078 2.576-3.232 2.6-9.345 2.693-17.167 2.693h-2.014c-8.595 0-17.775-.281-18.829-.328l-.21 1.686c1.264-.094 7.54-.164 12.529-.187v.047c.234-.024.468-.024.702-.047h.89c1.78.047 2.342.515 2.342 1.92 0 .68-.14 1.57-.328 2.717l-4.239 26.16c-.421 2.482-2.014 3.559-3.466 3.559-1.24 0-2.365-.773-2.529-2.178zm38.455-3.138l-.399-.234-1.615 3.138c-.726 1.405-2.108 2.178-3.28 2.178-1.1 0-2.037-.703-2.037-2.202 0-.398.07-.843.211-1.358l1.148-4.122c.538-2.014 2.552-9.812 2.787-12.365h-5.574c-2.576 0-4.895.538-6.44 3.56l-1.359 2.646.422.21 1.358-2.646c.726-1.405 1.57-2.271 2.131-2.271.422 0 .703.445.703 1.498 0 .492-.047 1.101-.188 1.827l-1.124 6.37c-.304 1.64-.796 3.911-.796 5.996 0 3.7 2.764 5.573 5.738 5.573 2.435 0 4.965-1.24 6.253-3.747z" font-size="47.963" font-family="QumpellkaNo12" letter-spacing="0" fill="url(#g)"/>
    <path style="-inkscape-font-specification:QumpellkaNo12" d="M257.481 37.65c-2.576 0-4.895.679-6.44 3.7l-1.359 2.646.422.211 1.358-2.646c.703-1.382 1.523-2.225 2.108-2.225.422 0 .726.468.726 1.592 0 .469-.07 1.054-.187 1.78l-2.787 16.628c0 .023-.047.304-.047.328 0 .468 1.616.702 3.185.702h2.834c.14 0 .445-.093.468-.257l2.506-9.86c.258-1.077.68-2.482 1.007-3.958l5.831-4.824c1.054-.843 2.342-1.733 3.303-1.733 1.03 0 1.334.913 1.334 2.108 0 1.522-.515 3.536-.796 4.847l-.562 2.506c-.375 1.71-.609 3.42-.609 5.012 0 3.747 1.382 6.721 5.832 6.721 1.873 0 3.84-1.217 5.269-4.028l2.178-4.285-.398-.235-1.733 3.373c-.726 1.405-1.944 2.154-2.951 2.154-.89 0-1.616-.609-1.616-1.92 0-.445.094-.984.281-1.616l1.265-4.122c.702-2.342 1.381-4.988 1.381-7.26 0-3.138-1.288-5.574-5.62-5.574-2.038 0-4.73 1.054-7.307 3.162l-4.754 3.911c.094-.726.164-1.429.164-2.108 0-2.623-.96-4.73-4.286-4.73z" font-size="47.963" font-family="QumpellkaNo12" letter-spacing="0" fill="url(#h)"/>
    <path style="-inkscape-font-specification:QumpellkaNo12" d="M286.99 55.987l-.54.117c.422 3.372 2.436 4.73 5.575 4.73 5.948 0 7.47-7.4 8.36-11.522l2.342-10.21h12.553l.117-1.687-12.389.469.82-3.513c.445-2.014 1.78-9.415 1.99-11.99 7.471-.141 14.029-.493 19.368-.493 8.267 0 13.583.844 14.66 4.544 2.67 0 4.45-1.64 4.45-4.099 0-3.02-3.278-4.637-9.344-4.637-9.133 0-23.653 3.584-35.386 3.584-1.78 0-5.762-.024-7.8-.188l.118 1.452c.562-.023 2.365-.047 4.098-.07 1.382.117 1.85.609 1.85 1.873 0 .68-.14 1.546-.327 2.694l-4.52 27.564c-.422 2.46-2.038 3.56-3.49 3.56-1.218 0-2.342-.773-2.506-2.178z" font-size="47.963" font-family="QumpellkaNo12" letter-spacing="0" fill="url(#i)"/>
    <path style="-inkscape-font-specification:QumpellkaNo12" d="M327.107 59.664c-3.092 0-4.544-1.5-4.544-5.246 0-7.916 3.724-15.855 8.642-15.855 2.88 0 4.403 2.108 4.403 6.089 0 8.595-3.607 15.012-8.501 15.012zm4.332-22.272c-9.04 0-15.878 4.871-15.878 14.145 0 5.668 4.262 9.298 11.311 9.298 8.806 0 15.949-5.62 15.949-14.708 0-5.69-3.911-8.735-11.382-8.735z" font-size="47.963" font-family="QumpellkaNo12" letter-spacing="0" fill="url(#j)"/>
    <path style="-inkscape-font-specification:QumpellkaNo12" d="M352.165 25.589c0 1.967 1.57 3.63 3.63 3.63 1.944 0 3.63-1.57 3.63-3.63a3.633 3.633 0 0 0-3.63-3.63 3.618 3.618 0 0 0-3.63 3.63zm9.813 27.26l-.398-.234-1.616 3.138c-.726 1.405-2.108 2.178-3.279 2.178-1.1 0-2.037-.703-2.037-2.202 0-.398.07-.843.21-1.358l1.148-4.122c.539-2.014 2.553-9.812 2.787-12.365h-5.574c-2.576 0-4.895.538-6.44 3.56l-1.359 2.646.422.21 1.358-2.646c.726-1.405 1.57-2.271 2.131-2.271.422 0 .703.445.703 1.498 0 .492-.07 1.101-.187 1.827l-1.124 6.37c-.305 1.64-.797 3.911-.797 5.996 0 3.7 2.764 5.573 5.738 5.573 2.436 0 4.965-1.24 6.253-3.747z" font-size="47.963" font-family="QumpellkaNo12" letter-spacing="0" fill="url(#k)"/>
    <path style="-inkscape-font-specification:QumpellkaNo12" d="M372.938 24.769s-2.225-.023-3.653-.047l-.047.469c.468 0 .773 0 .773 1.03 0 .68-.14 1.78-.445 3.607l-3.255 19.25c-.282 1.57-.633 3.7-.633 5.715 0 3.957 2.6 5.925 5.41 5.925 2.272 0 4.684-1.288 5.972-3.818l2.06-4.051-.397-.234-1.616 3.138c-.61 1.194-2.248 2.178-3.607 2.178-1.1 0-1.99-.656-1.99-2.366 0-.35.046-.749.14-1.194l4.075-17.213c.468-2.014 2.553-9.883 2.764-12.436z" font-size="47.963" font-family="QumpellkaNo12" letter-spacing="0" fill="url(#l)"/>
    <path style="-inkscape-font-specification:QumpellkaNo12" d="M411.182 21.959l-5.574.047s-4.215-.047-6.909-.07l-.07.468c3.068 0 3.958.234 3.958 1.897 0 .655-.14 1.545-.351 2.74l-2.366 13.794c-.702-.024-1.381-.07-1.99-.07-9.509 0-15.855 6.159-15.855 15.433 0 4.403 2.482 7.353 6.182 7.353 11.476 0 15.223-6.908 18.29-20.679 4.24.586 9.884 1.241 14.123 1.335l-2.272 13.185a8.246 8.246 0 0 0-.14 1.546c0 7.822 5.363 13.02 13.395 13.02 5.598 0 9.298-1.943 9.298-4.894 0-2.014-3.021-2.623-4.239-2.623 0 3.466-3.068 5.808-6.393 5.808-4.942 0-7.097-1.405-7.097-5.831 0-1.1.258-2.46.516-3.607l3.91-17.213c2.577-.656 4.52-1.873 5.41-3.981l-1.381-.796c-.469 1.334-1.733 2.201-3.56 2.74l1.616-7.19c.468-2.014 2.576-9.86 2.81-12.412l-5.573.047s-1.663-.047-2.694-.07l-.07.468c-.187 1.943-.304 2.927-.609 4.637l-2.6 15.27c-4.098 0-9.765-.47-14.145-.89l1.57-7.05c.468-2.014 2.576-9.86 2.81-12.412zm-11.522 20.07c-1.5 8.642-2.085 19.415-11.054 19.415-2.928 0-4.872-2.342-4.872-5.879 0-8.173 5.574-13.63 13.911-13.63.61 0 1.289.047 2.015.094z" font-size="47.963" font-family="QumpellkaNo12" letter-spacing="0" fill="url(#m)"/>
    <path style="-inkscape-font-specification:QumpellkaNo12" d="M459.543 37.884c-.539 0-2.342.28-3.42 2.74-1.17-2.108-3.512-3.232-7.213-3.232-8.97 0-14.965 5.738-14.965 14.31 0 5.48 4.169 9.133 10.399 9.133 5.971 0 8.735-3.537 10.445-7.12 0 4.567 2.646 7.12 5.48 7.12 1.99 0 4.098-1.265 5.456-3.935l2.061-4.051-.398-.234-1.616 3.138c-.726 1.405-2.108 2.201-3.302 2.201-1.17 0-2.155-.773-2.155-2.482 0-.328.047-.703.118-1.101l1.077-4.122c.562-1.99 2.435-9.812 2.67-12.365zm-4.146 3.466c.094.14.118.375.118.632 0 .351-.047.726-.07.96l-.422 6.136c-.024.305-.14 1.5-.352 1.99-1.381 3.584-3.864 8.174-8.267 8.174-3.419 0-5.245-1.873-5.245-5.363 0-9.133 3.864-15.222 9.648-15.222 1.616 0 3.607.772 4.59 2.693z" font-size="47.963" font-family="QumpellkaNo12" letter-spacing="0" fill="url(#n)"/>
    <path style="-inkscape-font-specification:QumpellkaNo12" d="M474.437 39.102l-1.545 9.976c-.235 1.593-.656 3.794-.656 5.832 0 3.864 2.904 5.808 5.995 5.808 2.46 0 5.059-1.265 6.37-3.818l2.061-4.051-.398-.234-1.616 3.138c-.632 1.24-2.482 2.201-4.051 2.201-1.335 0-2.483-.726-2.483-2.576 0-.304.047-.632.117-1.007l3.373-15.27h7.166v-1.217h-6.885l1.967-8.923c0-.023.023-.117.023-.14 0-.07-.234-.118-.515-.118h-2.717c-2.154 0-4.941 2.296-5.41 5.2l-.608 3.98h-4.754v1.219z" font-size="47.963" font-family="QumpellkaNo12" letter-spacing="0" fill="url(#o)"/>
    <path d="M490.152 57.93a3.617 3.617 0 0 0 3.63 3.63 3.617 3.617 0 0 0 3.63-3.63c0-2.177-1.452-3.63-3.63-3.63s-3.63 1.453-3.63 3.63z" letter-spacing="-3.887" fill="url(#p)"/>
    <path style="-inkscape-font-specification:QumpellkaNo12" d="M517.858 38.586c3.817 0 5.737 1.148 5.737 5.2 0 1.007-.14 2.2-.374 3.63.187.046.421.07.702.07 1.733 0 4.848-.984 4.848-3.56 0-4.239-5.176-6.51-10.703-6.51-9.016 0-15.855 4.847-15.855 14.121 0 5.668 4.286 9.298 11.312 9.298 5.082 0 9.461-1.874 12.319-5.059l-.867-.773c-1.874 2.272-5.878 4.24-9.32 4.24-4.31 0-6.207-1.617-6.207-5.715 0-7.47 3.981-14.918 8.408-14.942z" font-size="47.963" font-family="QumpellkaNo12" letter-spacing="0" fill="url(#q)"/>
    <path style="-inkscape-font-specification:QumpellkaNo12" d="M542.8 59.664c-3.092 0-4.544-1.5-4.544-5.246 0-7.916 3.723-15.855 8.641-15.855 2.881 0 4.403 2.108 4.403 6.089 0 8.595-3.606 15.012-8.5 15.012zm4.332-22.272c-9.04 0-15.879 4.871-15.879 14.145 0 5.668 4.263 9.298 11.312 9.298 8.806 0 15.948-5.62 15.948-14.708 0-5.69-3.91-8.735-11.381-8.735z" font-size="47.963" font-family="QumpellkaNo12" letter-spacing="0" fill="url(#r)"/>
  </g>
  <g transform="translate(.386 .376) scale(.55629)" fill="url(#s)" stroke="#000" stroke-width="2.014">
    <path transform="translate(-2.268 -101.732)" d="M132.107 169.472V137.93c-.286-16.329-7.562-21.218-15.636-24.802-20.938-6.701-40.122-8.798-63.893-2.696-8.113 4.04-17.468 6.828-19.41 26.15v32.35c-.613.14-.333.445-1.126 1.035-.062.836.14 1.568.587 2.201-.054 1.98-.467 2.16-.81 2.696 39.396 5.412 72.88 5.817 103.254.809-.773 2.177-2.864-5.719-2.966-6.2z" fill="url(#t)"/>
    <path transform="translate(-2.268 -101.732)" d="M31.82 175.133c-9.16-4.275-19.826-11.776-24.263-5.93-2.215 14.245 12.542 14.7 23.724 18.062 35.126 8.468 68.251 7.96 101.905 1.078 13.81-2.425 24.357-6.25 23.184-15.097-5.047-6.373-13.53-.72-21.297 2.427-33.885 5.15-67.961 8.384-103.253-.54z" fill="url(#u)"/>
  </g>
  <path d="M17.13 37.365c13.85 4.208 30.842 4.755 55.485.693l1.65 3.45c-18.401 3.577-37.185 3.813-56.985-.844z" stroke="#000" stroke-width="1.12"/>
  <path d="M2690 1480c-121-19-230-80-324-181l-55-60-54 54c-71 73-165 133-252 160-99 31-251 31-355-2-100-30-230-100-314-167-227-182-448-281-602-271-43 3-87 13-111 26-46 23-109 83-118 112-10 32 3 84 26 105 28 25 101 23 164-5 58-26 77-26 98-3 30 33 21 62-36 118-153 147-340 114-491-87-45-60-46-62-46-139 0-94 26-185 72-255 118-178 357-310 637-352 161-24 528-24 658 0 196 37 362 99 488 182 60 40 177 154 203 197 9 15 22 28 29 28 6 0 32-27 57-59 195-253 578-385 1061-368 398 15 625 91 813 271 106 102 162 224 162 357 0 55-5 72-29 110-40 63-142 156-198 182-104 47-226 20-322-71-34-32-41-46-41-76 0-56 31-66 110-36 75 28 143 32 165 9 25-24 34-81 20-115-20-48-88-101-152-120-100-29-236-3-389 74-66 33-237 147-319 213-64 51-233 134-310 153-82 19-179 26-245 16z" fill="url(#v)" transform="matrix(.0184 0 0 -.0184 2.31 81.442)" stroke-width="75.596" stroke="#000004"/>
  <path d="M100.06 81.23c13.66 2.32 21.022-2.675 26.452-7.176 7.052 4.888 11.42 8.622 26.209 7.054-11.542 7.802-21.366 18.736-26.12 34.297-4.93-15.227-13.691-26.364-26.54-34.175z" fill="url(#w)" stroke="#000" stroke-width="1.609" transform="translate(-64.688 3.878) scale(.86444)"/>
  <path d="M57.375 77.808c-5.901 4.57-11.204 9.81-12.688 15.938-2.066-6.316-7.452-11.848-12.631-15.828M14.214 56.703c-4.64-1.228-6.597 3.054-5.614 5.309 3.891 8.922 25.201 7.97 31.336.557m35.929-6.061c4.322-.833 5.948 3.807 4.25 6.186-6.569 9.198-24.032 7.19-30.167-.223" fill="none" stroke="#9ba3a8" stroke-width=".915" stroke-linecap="round"/>
</svg>